<svg width="102" height="99" viewBox="0 0 102 99" fill="none" xmlns="http://www.w3.org/2000/svg">
<path fill-rule="evenodd" clip-rule="evenodd" d="M50.625 99C57.2732 99 63.8562 97.7197 69.9984 95.232C76.1405 92.7444 81.7213 89.0983 86.4223 84.5018C91.1232 79.9053 94.8523 74.4484 97.3964 68.4428C99.9406 62.4372 101.25 56.0004 101.25 49.5C101.25 42.9996 99.9406 36.5628 97.3964 30.5572C94.8523 24.5516 91.1232 19.0947 86.4223 14.4982C81.7213 9.90171 76.1405 6.25557 69.9984 3.76796C63.8562 1.28035 57.2732 -9.6864e-08 50.625 0C37.1984 1.95626e-07 24.3217 5.21516 14.8277 14.4982C5.33369 23.7813 0 36.3718 0 49.5C0 62.6282 5.33369 75.2187 14.8277 84.5018C24.3217 93.7848 37.1984 99 50.625 99ZM49.32 69.52L77.445 36.52L68.805 29.48L44.6175 57.8545L32.1019 45.6115L24.1481 53.3885L41.0231 69.8885L45.3769 74.1455L49.32 69.52Z" fill="#00203F"/>
</svg>
