<svg width="96" height="96" viewBox="0 0 96 96" fill="none" xmlns="http://www.w3.org/2000/svg">
<circle cx="48" cy="48" r="48" fill="#BF83FF"/>
<mask id="mask0_0_13" style="mask-type:alpha" maskUnits="userSpaceOnUse" x="0" y="0" width="96" height="96">
<circle cx="48" cy="48" r="48" fill="#C4C4C4"/>
</mask>
<g mask="url(#mask0_0_13)">
<path fill-rule="evenodd" clip-rule="evenodd" d="M48 24.8508C38.3601 24.8508 30.5455 32.6655 30.5455 42.3054V44.0819C28.7765 44.3787 27.4286 45.9172 27.4286 47.7705V52.0451C27.4286 53.9359 28.8316 55.499 30.6534 55.7501C31.3346 61.8713 35.1814 67.037 40.5195 69.5729V75.3108C27.3174 76.0214 16.8312 86.9516 16.8312 100.331H79.1688C79.16888 86.9516 68.6826 76.0214 55.4805 75.3108V69.5729C60.8187 67.037 64.6654 61.8713 65.3466 55.7501C67.1684 55.499 68.5714 53.9359 68.5714 52.0451V47.7705C68.5714 45.9172 67.2235 44.3787 65.4546 44.0819V42.3054C65.4546 32.6655 57.6399 24.8508 48 24.8508Z" fill="#D0C6AC"/>
<mask id="mask1_0_13" style="mask-type:luminance" maskUnits="userSpaceOnUse" x="16" y="24" width="64" height="77">
<path fill-rule="evenodd" clip-rule="evenodd" d="M48 24.8508C38.3601 24.8508 30.5455 32.6655 30.5455 42.3054V44.0819C28.7765 44.3787 27.4286 45.9172 27.4286 47.7705V52.0451C27.4286 53.9359 28.8316 55.499 30.6534 55.7501C31.3346 61.8713 35.1814 67.037 40.5195 69.5729V75.3108C27.3174 76.0214 16.8312 86.9516 16.8312 100.331H79.1688C79.16888 86.9516 68.6826 76.0214 55.4805 75.3108V69.5729C60.8187 67.037 64.6654 61.8713 65.3466 55.7501C67.1684 55.499 68.5714 53.9359 68.5714 52.0451V47.7705C68.5714 45.9172 67.2235 44.3787 65.4546 44.0819V42.3054C65.4546 32.6655 57.6399 24.8508 48 24.8508Z" fill="white"/>
</mask>
<g mask="url(#mask1_0_13)">
<rect width="82.2857" height="75.4801" transform="translate(6.85718 24.8508)" fill="#FFCCD7"/>
<rect x="6.85718" y="24.8508" width="82.2857" height="75.4801" fill="#FFCCD7"/>
<path fill-rule="evenodd" clip-rule="evenodd" d="M30.5454 53.7979V56.2726C30.5454 65.9125 38.3601 73.7271 48 73.7271C57.6398 73.7271 65.4545 65.9125 65.4545 56.2726V53.7979C65.4545 63.4377 57.6398 71.2524 48 71.2524C38.3601 71.2524 30.5454 63.4377 30.5454 53.7979Z" fill="black" fill-opacity="0.1"/>
<mask id="mask2_0_13" style="mask-type:luminance" maskUnits="userSpaceOnUse" x="16" y="77" width="64" height="24">
<path fill-rule="evenodd" clip-rule="evenodd" d="M48.1559 86.6661C56.6768 86.6661 63.5844 82.5832 63.5844 77.5466C63.5844 77.4071 63.5791 77.2684 63.5686 77.1304C72.7189 80.8577 79.1688 89.8409 79.1688 100.331H16.8312C16.8312 89.7179 23.4333 80.6472 32.7544 77.0015C32.7364 77.1818 32.7273 77.3636 32.7273 77.5466C32.7273 82.5832 39.6349 86.6661 48.1559 86.6661Z" fill="#6223A9"/>
</g>
<path fill-rule="evenodd" clip-rule="evenodd" d="M48.1559 86.6661C56.6768 86.6661 63.5844 82.5832 63.5844 77.5466C63.5844 77.4071 63.5791 77.2684 63.5686 77.1304C72.7189 80.8577 79.1688 89.8409 79.1688 100.331H16.8312C16.8312 89.7179 23.4333 80.6472 32.7544 77.0015C32.7364 77.1818 32.7273 77.3636 32.7273 77.5466C32.7273 82.5832 39.6349 86.6661 48.1559 86.6661Z" fill="white"/>
<g mask="url(#mask2_0_13)">
</mask>
</g>
<rect x="6.85718" y="66.3027" width="82.2857" height="34.0279" fill="#6223A9"/>
<path fill-rule="evenodd" clip-rule="evenodd" d="M43.6365 59.8066C43.6365 62.1985 45.5901 64.1375 48.0001 64.1375C50.4101 64.1375 52.3637 62.1985 52.3637 59.8066" fill="#00203F"/>
<path fill-rule="evenodd" clip-rule="evenodd" d="M44.2599 53.9292C44.2599 55.296 45.9345 56.404 48.0001 56.404C50.0658 56.404 51.7404 55.296 51.7404 53.9292" fill="#00203F"/>
<g opacity="0.3">
</g>
<ellipse cx="39.8961" cy="48.361" rx="1.87013" ry="1.85607" fill="#00203F"/>
<ellipse cx="56.104" cy="48.361" rx="1.87013" ry="1.85607" fill="#00203F"/>
<path d="M35.4172 44.3886C36.6374 42.6845 39.9827 41.7289 42.8643 42.4312C43.1986 42.5127 43.5363 42.3098 43.6184 41.9779C43.7005 41.6461 43.496 41.311 43.1616 41.2296C39.8152 40.4139 35.9414 41.5205 34.4009 43.6718C34.2015 43.9503 34.2673 44.3366 34.548 44.5345C34.8286 44.7324 35.2178 44.6671 35.4172 44.3886Z" fill="#00203F"/>
<path d="M60.5829 44.3886C59.3627 42.6845 56.0174 41.7289 53.1358 42.4312C52.8015 42.5127 52.4639 42.3098 52.3818 41.9779C52.2997 41.6461 52.5041 41.311 52.8385 41.2296C56.185 40.4139 60.0587 41.5205 61.5992 43.6718C61.7986 43.9503 61.7328 44.3366 61.4522 44.5345C61.1715 44.7324 60.7824 44.6671 60.5829 44.3886Z" fill="#00203F"/>
<mask id="mask3 0 13" style="mask-type:luminance" maskUnits="userSpaceOnUse" x="6" y="13" width="84" height="88">
<rect x="6.85718" y="13.7144" width="82.2857" height="86.6165" fill="white"/>
</mask>
<g mask="url(#mask3_0_13)">
<path fill-rule="evenodd" clip-rule="evenodd" d="M19.0132 58.5695C18.8208 49.0305 27.8399 29.1183 31.169 25.1602C33.6385 22.2242 40.4247 19.7624 48.0002 19.9014C55.5758 20.0404 62.6065 21.6993 65.1431 24.8509C68.9843 29.6233 76.9463 47.7667 76.9872 58.5695C77.0163 66.2412 74.0145 73.9315 69.8184 74.346C67.4493 74.5801 64.4397 74.2763 60.8235 73.9112C59.1685 73.7441 57.3865 73.5642 55.4806 73.4172V69.5729C61.3776 66.7715 65.4547 60.7609 65.4547 53.798V45.1326C62.1794 43.3417 59.391 41.1796 57.068 38.9828C58.1139 40.9132 59.3101 42.6661 60.6589 43.991C51.1266 41.3366 44.5371 35.9008 40.5881 31.6389C38.7727 35.0662 35.5211 40.0784 30.5456 43.8965V53.798C30.5456 60.7609 34.6226 66.7715 40.5196 69.5729V73.6487C38.3524 73.9432 36.3383 74.3168 34.4847 74.6606L34.4847 74.6606C31.1033 75.2879 28.2564 75.816 25.9902 75.5835C21.5571 75.1289 19.1678 66.2399 19.0132 58.5695Z" fill="#E6E6E6"/>
<mask id="mask4_0_13" style="mask-type:luminance" maskUnits="userSpaceOnUse" x="19" y="19" width="58" height="57">
<path fill-rule="evenodd" clip-rule="evenodd" d="M19.0132 58.5695C18.8208 49.0305 27.8399 29.1183 31.169 25.1602C33.6385 22.2242 40.4247 19.7624 48.0002 19.9014C55.5758 20.0404 62.6065 21.6993 65.1431 24.8509C68.9843 29.6233 76.9463 47.7667 76.9872 58.5695C77.0163 66.2412 74.0145 73.9315 69.8184 74.346C67.4493 74.5801 64.4397 74.2763 60.8235 73.9112C59.1685 73.7441 57.3865 73.5642 55.4806 73.4172V69.5729C61.3776 66.7715 65.4547 60.7609 65.4547 53.798V45.1326C62.1794 43.3417 59.391 41.1796 57.068 38.9828C58.1139 40.9132 59.3101 42.6661 60.6589 43.991C51.1266 41.3366 44.5371 35.9008 40.5881 31.6389C38.7727 35.0662 35.5211 40.0784 30.5456 43.8965V53.798C30.5456 60.7609 34.6226 66.7715 40.5196 69.5729V73.6487C38.3524 73.9432 36.3383 74.3168 34.4847 74.6606L34.4847 74.6606C31.1033 75.2879 28.2564 75.816 25.9902 75.5835C21.5571 75.1289 19.1678 66.2399 19.0132 58.5695Z" fill="white"/>
</mask>
<g mask="url(#mask4_0_13)">
<rect x="6.54553" y="13.7144" width="82.9091" height="86.6165" fill="#00203F"/>
</g>
</g>
</g>
</svg>

















