<svg width="40" height="40" viewBox="0 0 40 40" fill="none" xmlns="http://www.w3.org/2000/svg">
<circle cx="20" cy="20" r="20" fill="#BF83FF"/>
<mask id="mask0_71_1871" style="mask-type:alpha" maskUnits="userSpaceOnUse" x="0" y="0" width="40" height="40">
<circle cx="20" cy="20" r="20" fill="#C4C4C4"/>
</mask>
<g mask="url(#mask0_71_1871)">
<path fill-rule="evenodd" clip-rule="evenodd" d="M20.0001 10.3544C15.9835 10.3544 12.7273 13.6105 12.7273 17.6271V18.3673C11.9903 18.491 11.4286 19.132 11.4286 19.9042V21.6853C11.4286 22.4731 12.0132 23.1244 12.7723 23.2291C13.0561 25.7796 14.659 27.9319 16.8832 28.9885V31.3793C11.3823 31.6754 7.01306 36.2297 7.01306 36.2297 7.01306 41.8044H32.9871C32.9871 36.2297 28.6178 31.6755 23.117 31.3793V28.9885C25.3412 27.9319 26.944 25.7796 27.2278 23.2291C27.9869 23.1244 28.5715 22.4731 28.5715 21.6853V19.9042C28.5715 19.132 28.0099 18.491 27.2728 18.3673V17.6271C27.2728 13.6105 24.0167 10.3544 20.0001 10.3544Z" fill="#D0C6AC"/>
<mask id="mask1_71_1871" style="mask-type:luminance" maskUnits="userSpaceOnUse" x="7" y="10" width="26" height="32">
<path fill-rule="evenodd" clip-rule="evenodd" d="M20.0001 10.3544C15.9835 10.3544 12.7273 13.6105 12.7273 17.6271V18.3673C11.9903 18.491 11.4286 19.132 11.4286  19.9042V21.6853C11.4286 22.4731 12.0132 23.1244 12.7723 23.2291C13.0561 25.7796 14.659 27.9319 16.8832 28.9885V31.3793C11.3823 31.6754 7.01306 36.2297 7.01306 36.2297 7.01306 41.8044H32.9871C32.9871 36.2297 28.6178 31.6755 23.117 31.3793V28.9885C25.3412 27.9319 26.944 25.7796 27.2278 23.2291C27.9869 23.1244 28.5715 22.4731 28.5715 21.6853V19.9042C28.5715 19.132 28.0099 18.491 27.2728 18.3673V17.6271C27.2728 13.6105 24.0167 10.3544 20.0001 10.3544Z" fill="white"/>
</mask>
<g mask="url(#mask1_71_1871)">
<rect width="34.2857" height="31.4501" transform="translate(2.85718 10.3544)" fill="#FFCCD7"/>
<rect x="2.85718" y="10.3544" width="34.2857" height="31.4501" fill="#FFCCD7"/>
<path fill-rule="evenodd" clip-rule="evenodd" d="M12.7273 22.4157V23.4468C12.7273 27.4634 15.9834 30.7195 20 30.7195C24.0166 30.7195 27.2727 27.4634 27.2727 23.4468V22.4156C27.2727 26.4323 24.0166 29.6884 20 29.6884C15.9834 29.6884 12.7273 26.4323 12.7273 22.4157Z" fill="black" fill-opacity="0.1"/>
</g>
<path fill-rule="evenodd" clip-rule="evenodd" d="M20.065 36.1108C23.6154 36.1108 26.4936 34.4096 26.4936 32.311C26.4936 32.2529 26.4914 32.1951 26.487 32.1376C30.2996 33.6906 32.9871 37.4336 32.9871 41.8044H7.01306C7.01306 37.3824 9.76393 33.6029 13.6477 32.0839C13.6402 32.159 13.6364 32.2348 13.6364 32.311C13.6364 34.4096 16.5146 36.1108 20.065 36.1108Z" fill="#6223A9"/> 
<mask id="mask2_71_1871" style="mask-type:luminance" maskUnits="userSpaceOnUse" x="7" y="32" width="26" height="10">
<path fill-rule="evenodd" clip-rule="evenodd" d="M20.065 36.1108C23.6154 36.1108 26.4936 34.4096 26.4936 32.311C26.4936 32.2529 26.4914 32.1951 26.487 32.1376C30.2996 33.6906 32.9871 37.4336 32.9871 41.8044H7.01306C7.01306 37.3824 9.76393 33.6029 13.6477 32.0839C13.6402 32.159 13.6364 32.2348 13.6364 32.311C13.6364 34.4096 16.5146 36.1108 20.065 36.1108Z" fill="#6223A9"/>
</mask>
<g mask="url(#mask2_71_1871)">
<rect x="2.85718" y="27.6261" width="34.2857" height="14.1783" fill="#6223A9"/>
</g>
<path fill-rule="evenodd" clip-rule="evenodd" d="M18.1819 24.9194C18.1819 25.916 18.9959 26.7239 20.0001 26.7239C21.0042 26.7239 21.8182 25.916 21.8182 24.9194" fill="#00203F"/>
<g opacity="0.3">
<path fill-rule="evenodd" clip-rule="evenodd" d="M18.4415 22.4705C18.4415 23.0399 19.1393 23.5016 20 23.5016C20.8607 23.5016 21.5584 23.0399 21.5584 22.4705" fill="#00203F"/>
</g>
<ellipse cx="16.6235" cy="20.1503" rx="0.77922" ry="0.773362" fill="#00203F"/>
<ellipse cx="23.3766" cy="20.1503" rx="0.779221" ry="0.773362" fill="#00203F"/>
<path d="M14.7571 18.4952C15.2656 17.7852 16.6594 17.387 17.8601 17.6796C17.9994 17.7136 18.1401 17.629 18.1743 17.4908C18.2085 17.3525 18.1233 17.2129 17.984 17.1789C16.5896 16.8391 14.9755 17.3002 14.3337 18.1965C14.2506 18.3126 14.278 18.4735 14.3949 18.556C14.5119 18.6385 14.674 18.6113 14.7571 18.4952Z" fill="#00203F"/>
<path d="M25.2429 18.4952C24.7344 17.7852 23.3406 17.387 22.1399 17.6796C22.0006 17.7136 21.8599 17.629 21.8257 17.4908C21.7915 17.3525 21.8767 17.2129 22.01617.1789C23.4104 16.8391 25.0245 17.3002 25.6663 18.1965C25.7494 18.3126 25.722 18.4735 25.6051 18.556C25.4881 18.6385 25.326 18.6113 25.2429 18.4952Z" fill="#00203F"/>
<mask id="mask3_71_1871" style="mask-type:luminance" maskUnits="userSpaceOnUse" x="2" y="5" width="36" height="37">
<rect x="2.85718" y="5.71423" width="34.2857" height="36.0902" fill="white"/>
</mask>
<g mask="url(#mask3_71_1871)">
<path fill-rule="evenodd" clip-rule="evenodd" d="M7.92216 24.4038C7.84202 20.4293 11.5999 12.1325 12.9871 10.4833C14.0161 9.25997 16.8436 8.23421 20.0001 8.29213C23.1566 8.35005 26.086 9.04128 27.143 10.3544C28.7435 12.343 32.061 19.9027 32.078 24.4038C32.0902 27.6004 30.8394 30.8047 29.091 30.9774C28.1039 31.0749 26.85 30.9484 25.3434 30.7963L25.3433 30.7963L25.3432 30.7962L25.3432 30.7962H25.3431H25.3431H25.3431C24.6535 30.7266 23.911 30.6517 23.1169 30.5904V28.9886C25.574 27.2728 25.3169 27.2728 22.4157V18.8052C25.9081 18.059 24.7463 17.1581 23.7783 16.2427C24.2141 17.0471 24.7125 17.7774 25.2746 18.3295C21.3028 17.2235 18.5571 14.9586 16.9117 13.1828C16.1553 14.6108 14.8005 16.6992 12.7273 18.2901V22.4157C12.7273 25.3169 14.4261 27.8214 16.8832 28.9886V30.6869C15.9802 30.8096 15.1409 30.9652 14.3686 31.1085C12.9597 31.3698 11.7735 31.5899 10.8292 31.493C8.98211 31.3036 7.98661 27.5998 7.92216 24.4038Z" fill="E6E6E6"/> 
<mask id="mask4_71_1871" style="mask-type:luminance" maskUnits="userSpaceOnUse" x="7" y="8" width="26" height="24">
<path fill-rule="evenodd" clip-rule="evenodd" d="M7.92216 24.4038C7.84202 20.4293 11.5999 12.1325 12.9871 10.4833C14.0161 9.25997 16.8436 8.23421 20.0001 8.29213C23.1566 8.35005 26.086 9.04128 27.143 10.3544C28.7435 12.343 32.061 19.9027 32.078 24.4038C32.0902 27.6004 30.8394 30.8047 29.091 30.9774C28.1039 31.0749 26.85 30.9484 25.3434 30.7963L25.3433 30.7963L25.3432 30.7962L25.3432 30.7962H25.3431H25.3431H25.3431C24.6535 30.7266 23.911 30.6517 23.1169 30.5904V28.9886C25.574  27.8214 27.2728 25.3169 27.2728 22.4157V18.8052C25.9081 18.059 24.7463 17.1581 23.7783 16.2427C24.2141 17.0471 24.7125 17.7774 25.2746 18.3295C21.3028 17.2235 18.5571 14.9586 16.9117 13.1828C16.1553 14.6108 14.8005 16.6992 12.7273 18.2901V22.4157C12.7273 25.3169 14.4261 27.8214 16.8832 28.9886V30.6869C15.9802 30.8096 15.1409 30.9652 14.3686 31.1085C12.9597 31.3698 11.7735 31.5899 10.8292 31.493C8.98211 31.3036 7.98661 27.5998 7.92216 24.4038Z" fill="white"/>
</mask>
<g mask="url(#mask4_71_1871)">
<rect x="2.72729" y="5.71423" width="34.5455" height="36.0902" fill="#00203F"/>
</g>
</g>
</g>
</svg>