<svg width="45" height="45" viewBox="0 0 45 45" fill="none" xmlns="http://www.w3.org/2000/svg">
<circle cx="22.5" cy="22.5" r="22.5" fill="#BF83FF"/>
<mask id="mask0_121_2424" style="mask-type:alpha" maskUnits="userSpaceOnUse" x="0" y="0" width="45" height="45">
<circle cx="22.5" cy="22.5" r="22.5" fill="#C4C4C4"/>
</mask>
<g mask="url(#mask0_121_2424)">
<path fill-rule="evenodd" clip-rule="evenodd" d="M22.5 11.6487C17.9813 11.6487 14.3182 15.3118 14.3182 19.8305V20.6633C13.489 20.8024 12.8572 21.5235 12.8572 22.3923V24.396C12.8572 25.2823 13.5149 26.015 14.3688 26.1327C14.6881 29.002 16.4913 31.4234 18.9935 32.6121V35.3018C12.8051 35.6349 7.88965 40.7584 7.88965 47.03H37.1104C37.1104 40.7584  32.195 35.6349 26.0065 35.3018V32.6121C28.5088 31.4234 30.312 29.002 30.6313 26.1327C31.4852 26.015 32.1429 25.2823 32.1429 24.396V22.3923C32.1429 21.5235 31.5111 20.8024 30.6819 20.6633V19.8305C30.6819 15.3118 27.0187 11.6487 22.5 11.6487Z" fill="#D0C6AC"/>
<mask id="mask1_121_2424" style="mask-type:luminance" maskUnits="userSpaceOnUse" x="7" y="11" width="31" height="37">
<path fill-rule="evenodd" clip-rule="evenodd" d="M22.5 11.6487C17.9813 11.6487 14.3182 15.3118 14.3182 19.8305V20.6633C13.489 20.8024 12.8572 21.5235 12.8572 22.3923V24.396C12.8572 25.2823 13.5149 26.015 14.3688 26.1327C14.6881 29.002 16.4913 31.4234 18.9935 32.6121V35.3018C12.8051 35.6349 7.88965 40.7584 7.88965 47.03H37.1104C37.1104 40.7584  32.195 35.6349 26.0065 35.3018V32.6121C28.5088 31.4234 30.312 29.002 30.6313 26.1327C31.4852 26.015 32.1429 25.2823 32.1429 24.396V22.3923C32.1429 21.5235 31.5111 20.8024 30.6819 20.6633V19.8305C30.6819 15.3118 27.0187 11.6487 22.5 11.6487Z" fill="white"/>
</mask>
<g mask="url(#mask1_121_2424)">
<rect width="38.5714" height="35.3813" transform="translate(3.21429 11.6487)" fill="#FFCCD7"/>
<rect x="3.21429" y="11.6487" width="38.5714" height="35.3813" fill="#FFCCD7"/>
<path fill-rule="evenodd" clip-rule="evenodd" d="M14.3182 25.2178V26.3778C14.3182 30.8965 17.9814 34.5596 22.5001 34.5596C27.0187 34.5596 30.6819 30.8965 30.6819 26.3778V25.2178C30.6819 29.7365 27.0187 33.3996 22.5001 33.3996C17.9814 33.3996 14.3182 29.7365 14.3182 25.2178Z" fill="black" fill-opacity="0.1"/>
</g>
<path fill-rule="evenodd" clip-rule="evenodd" d="M22.5731 40.6245C26.5673 40.6245 29.8052 38.7107 29.8052 36.3498C29.8052 36.2844 29.8027 36.2194 29.7978 36.1547C34.087 37.9018 37.1104 42.1127 37.1104 47.0298H7.88965C7.88965 42.0551 10.9844 37.8032 15.3537 36.0942C15.3452 36.1788 15.3409 36.264 15.3409 36.3498C15.3409 38.7107 18.5789 40.6245 22.5731 40.6245Z" fill="#6223A9"/>
<mask id="mask2_121_2424" style="mask-type:luminance" maskUnits="userSpaceOnUse" x="7" y="36" width="31" height="12">
<path fill-rule="evenodd" clip-rule="evenodd" d="M22.5731 40.6245C26.5673 40.6245 29.8052 38.7107 29.8052 36.3498C29.8052 36.2844 29.8027 36.2194 29.7978 36.1547C34.087 37.9018 37.1104 42.1127 37.1104 47.0298H7.88965C7.88965 42.0551 10.9844 37.8032 15.3537 36.0942C15.3452 36.1788 15.3409 36.264 15.3409 36.3498C15.3409 38.7107 18.5789 40.6245 22.5731 40.6245Z" fill="#white"/>
</mask>
<g mask="url(#mask2_121_2424)">
<rect x="3.21429" y="31.0793" width="38.5714" height="15.9506" fill="#6223A9"/>
</g>
<path fill-rule="evenodd" clip-rule="evenodd" d="M20.4545 28.0342C20.4545 29.1554 21.3703 30.0643 22.5 30.0643C23.6297 30.0643 24.5454 29.1554 24.5454 28.0342" fill="#00203F"/>
<g opacity="0.3">
<path fill-rule="evenodd" clip-rule="evenodd" d="M20.7467 25.2793C20.7467 25.92 21.5317 26.4393 22.5 26.4393C23.4682 26.4393 24.2532 25.92 24.2532 25.2793" fill="#00203F"/>
</g>
<ellipse cx="18.7013" cy="22.6691" rx="0.876623" ry="0.870032" fill="#00203F"/>
<ellipse cx="26.2987" cy="22.6691" rx="0.876623" ry="0.870032" fill="#00203F"/>
<path d="M16.6018 20.8069C17.1737 20.0081 18.7418 19.5602 20.0926 19.8894C20.2493 19.9276 20.4076 19.8325 20.4461 19.6769C20.4845 19.5214 20.3887 19.3643 20.232 19.3261C18.6633 18.9438 16.8475 19.4625 16.1254 20.4709C16.0319 20.6015 16.0628 20.7825 16.1943 20.8753C16.3259 20.9681 16.5083 20.9375 16.6018 20.8069Z" fill="#00203F"/>
<path d="M28.3982 20.8069C27.8262 20.0081 26.2581 19.5602 24.9073 19.8894C24.7506 19.9276 24.5924 19.8325 24.5539 19.6769C24.5154 19.5214 24.6112 19.3643 24.768 19.3261C26.3366 18.9438 28.1524 19.4625 28.8745 20.4709C28.968 20.6015 28.9372 20.7825 28.8056 20.8753C28.6741 20.9681 28.4917 20.9375 28.3982 20.8069Z" fill="#00203F"/>
<mask id="mask3_121_2424" style="mask-type:luminance" maskUnits="userSpaceOnUse" x="3" y="6" width="39" height="42">
<rect x="3.21429" y="6.42847" width="38.5714" height="40.6015" fill="white"/>
</mask>
<g mask="url(#mask3_121_2424)">
<path fill-rule="evenodd" clip-rule="evenodd" d="M8.91237 27.4542C8.82221 22.9828 13.0499 13.649 14.6104 11.7937C15.768 10.4174 18.949 9.2634 22.5001 9.32856C26.0511 9.39372 29.3467 10.1714 30.5358 11.6486C32.3363 13.8857 36.0685 22.3904 36.0877 27.4542C36.1014 31.0504 34.6942 34.6552 32.7273 34.8495C31.6168 34.9592 30.2061 34.8168 28.511 34.6457L28.5109 34.6457C27.7351 34.5674 26.8998 34.483 26.0065 34.4141V32.6121C28.7707 31.2989 30.6818 28.4815 30.6818 25.2176V21.1557C29.1465 20.3162 27.8395 19.3028 26.7506 18.273C27.2408 19.1779 27.8015 19.9995 28.4338 20.6206C23.9655 19.3763 20.8767 16.8283 19.0256 14.8305C18.1747 16.4371 16.6505 18.7866 14.3182 20.5763V25.2176C14.3182 28.4815 16.2293 31.2989 18.9935 32.6121V34.5226C17.9777 34.6606 17.0336 34.8358 16.1648 34.9969L16.1647 34.9969L16.1647 34.997L16.1646 34.997C14.5796 35.291 13.2451 35.5385 12.1828 35.4296C10.1048 35.2165 8.98487 31.0497 8.91237 27.4542Z" fill="#E6E6E6"/>
<mask id="mask4_121_2424" style="mask-type:luminance" maskUnits="userSpaceOnUse" x="8" y="9" width="29" height="27">
<path fill-rule="evenodd" clip-rule="evenodd" d="M8.91237 27.4542C8.82221 22.9828 13.0499 13.649 14.6104 11.7937C15.768 10.4174 18.949 9.2634 22.5001 9.32856C26.0511 9.39372 29.3467 10.1714 30.5358 11.6486C32.3363 13.8857 36.0685 22.3904 36.0877 27.4542C36.1014 31.0504 34.6942 34.6552 32.7273 34.8495C31.6168 34.9592 30.2061 34.8168 28.511 34.6457L28.5109 34.6457C27.7351 34.5674 26.8998 34.483 26.0065 34.4141V32.6121C28.7707 31.2989 30.6818 28.4815 30.6818 25.2176V21.1557C29.1465 20.3162 27.8395 19.3028 26.7506 18.273C27.2408 19.1779 27.8015 19.9995 28.4338 20.6206C23.9655 19.3763 20.8767 16.8283 19.0256 14.8305C18.1747 16.4371 16.6505 18.7866 14.3182 20.5763V25.2176C14.3182 28.4815 16.2293 31.2989 18.9935 32.6121V34.5226C17.9777 34.6606 17.0336 34.8358 16.1648 34.9969L16.1647 34.9969L16.1647 34.997L16.1646 34.997C14.5796 35.291 13.2451 35.5385 12.1828 35.4296C10.1048 35.2165 8.98487 31.0497 8.91237 27.4542Z" fill="white"/>
</mask>
<g mask="url(#mask4_121_2424)">
<rect x="3.06818" y="6.42847" width="38.8636" height="40.6015" fill="#00203F"/>
</g>
</g>
</g>
</svg>